<svg aria-label="RedShield" class="c-header__logo" width="200" height="39" viewBox="0 0 200 39" fill="none" xmlns="http://www.w3.org/2000/svg">
  <path id="logo-shield-1" d="M34.4593 5.58687C34.4207 5.25726 34.3058 4.94118 34.1237 4.66372C33.9417 4.38626 33.6974 4.15506 33.4104 3.98847C31.7666 3.06972 30.0475 2.29268 28.2718 1.66579C26.9292 1.19248 25.5567 0.808688 24.1634 0.516942C23.1831 0.310898 22.1904 0.14856 21.1789 0.0174415C20.8719 -0.0216925 20.5601 0.00520658 20.2643 0.0963382C19.9685 0.18747 19.6956 0.340731 19.4639 0.545863C19.2322 0.750994 19.0469 1.00326 18.9206 1.28578C18.7943 1.5683 18.7297 1.87455 18.7313 2.18402V16.8007C20.5585 16.8878 22.3722 17.1597 24.1446 17.6123C25.6044 17.9901 27.0307 18.4871 28.4091 19.0984C27.5696 22.2085 26.127 25.1234 24.1634 27.6773V19.7789C22.3849 19.325 20.5648 19.0531 18.7313 18.9672V38.0044C20.7169 37.4209 22.5601 36.4323 24.1446 35.1011C28.3728 31.6288 31.4847 26.9881 33.0919 21.7582C33.5253 20.4145 33.8715 19.0443 34.1284 17.656C34.2138 17.1993 34.1522 16.7273 33.9525 16.3077C33.7529 15.8881 33.4253 15.5427 33.017 15.3209C31.8436 14.6849 30.6321 14.1219 29.3894 13.6351C27.6902 12.9577 25.9353 12.4292 24.1446 12.0554V6.08013C25.9639 6.54548 27.7299 7.19832 29.4144 8.02818C29.4768 8.87109 29.5143 9.73897 29.5143 10.6443C29.5143 10.9378 29.5143 11.2187 29.5143 11.506C31.2932 12.2163 33.0063 13.0813 34.6342 14.0909C34.7028 13.2417 34.7528 12.3738 34.7715 11.481C34.7715 11.2063 34.7715 10.9253 34.7715 10.6443C34.7792 8.95346 34.6749 7.26395 34.4593 5.58687Z" fill="#D62123"></path>
  <path id="logo-shield-2" d="M13.6114 0.0180636C12.5999 0.149182 11.6009 0.31152 10.6144 0.517564C7.0384 1.2721 3.61482 2.62296 0.487057 4.51357C0.15979 6.5367 -0.00307974 8.58302 4.40918e-05 10.6324C4.40918e-05 10.9134 4.40918e-05 11.1944 4.40918e-05 11.4691C4.40918e-05 12.362 0.0687254 13.2298 0.137407 14.079C1.76521 13.0694 3.4784 12.2044 5.25729 11.4941C5.25729 11.2069 5.25729 10.9259 5.25729 10.6324C5.25729 9.7271 5.29475 8.85922 5.35719 8.01631C7.03842 7.19217 8.80015 6.54355 10.6144 6.08075V12.056C8.82602 12.4307 7.07333 12.9592 5.37592 13.6357C3.64254 14.3238 1.97141 15.1593 0.380913 16.1332C0.649058 18.0503 1.08147 19.9408 1.67337 21.7838C3.28495 27.003 6.39397 31.634 10.6144 35.1017C12.2015 36.4328 14.0466 37.4213 16.034 38.0051V18.9679C14.2048 19.0554 12.3891 19.3274 10.6144 19.7795V27.6717C8.6474 25.1205 7.20061 22.2078 6.35619 19.099C7.73285 18.4887 9.15699 17.9917 10.6144 17.613C12.3891 17.1608 14.2048 16.8889 16.034 16.8013V2.1784C16.0343 1.87183 15.9697 1.56866 15.8444 1.28883C15.7192 1.00901 15.5361 0.758851 15.3073 0.554806C15.0785 0.350761 14.8091 0.197448 14.5168 0.10494C14.2245 0.012432 13.916 -0.0171753 13.6114 0.0180636Z" fill="#D62123"></path>
</svg>